PathFileType	4	(X/Y/Z)	Apose_0-124.trc
DataRate	CameraRate	NumFrames	NumMarkers	Units	OrigDataRate	OrigDataStartFrame	OrigNumFrames
30	30	6	22	m	30	15	124
Frame#	Time	Hip			RHip			RKnee			RAnkle			RBigToe			RSmallToe			RHeel			LHip			LKnee			LAnkle			LBigToe			LSmallToe			LHeel			Neck			Head			Nose			RShoulder			RElbow			RWrist			LShoulder			LElbow			LWrist		
		X1	Y1	Z1	X2	Y2	Z2	X3	Y3	Z3	X4	Y4	Z4	X5	Y5	Z5	X6	Y6	Z6	X7	Y7	Z7	X8	Y8	Z8	X9	Y9	Z9	X10	Y10	Z10	X11	Y11	Z11	X12	Y12	Z12	X13	Y13	Z13	X14	Y14	Z14	X15	Y15	Z15	X16	Y16	Z16	X17	Y17	Z17	X18	Y18	Z18	X19	Y19	Z19	X20	Y20	Z20	X21	Y21	Z21	X22	Y22	Z22
16	0.5333333333333333	0.8191071348574279	0.8526678929346173	0.33627709616206747	0.8303640143654614	0.8118814142678892	0.2533189279695604	0.8387759264020231	0.48477634249302115	0.2652454613139672	0.8375619525009388	0.10732729415752232	0.284734714165481	0.672261521650024	0.03422954546500428	0.21617949807771408	0.730539523795079	0.030059738731936902	0.16818950270408733	0.8670969171189037	0.0361422814589817	0.29826358186695695	0.8135178517775442	0.8125951717920318	0.4261797635151029	0.8275615864860242	0.4895046752531502	0.42127550472452097	0.8439128204169672	0.1119438898862607	0.4271850884689246	0.6605841687738112	0.036549118016552265	0.46046108156188437	0.7246531236071027	0.030775602735101222	0.5168404502163962	0.8866363360638635	0.05039720315429117	0.42840444735801886	0.8248764201214986	1.4618423743600275	0.34091848057663987	0.8134717158683544	1.6854132362987442	0.3556922830671551	0.7193037600981754	1.579630761419211	0.29300826106305977	0.8603046445251944	1.3765983542528484	0.16206052578244898	0.88914911616106	1.1861329249822985	-0.03037610894307709	0.8661208291240743	1.095516718648148	-0.21133154832281595	0.8258432503121976	1.370628597648274	0.5224149071529702	0.8084722741786781	1.1715321560538499	0.711139890903275	0.7678584737314209	1.0726945890004822	0.8703004624707033
17	0.5666666666666667	0.8192545956456536	0.8528308750558273	0.3364699320740554	0.8304354498196611	0.8122453062509667	0.25340646540255435	0.838490876480209	0.4878414691779779	0.2653476010364642	0.8377232004113337	0.10728932567677912	0.2846072980293623	0.6712930269116341	0.03544254791069417	0.2151246991923135	0.730781789206463	0.030003442861886206	0.1683154270372242	0.8672547097942859	0.03624235952848119	0.2983603510031338	0.8137681042980212	0.8129140044087659	0.4265236871361729	0.827899868565827	0.4894966277343721	0.4213117729785471	0.8442028228717505	0.11227406934903345	0.42705810191466315	0.6589390391295761	0.03611185512473278	0.4594416032180449	0.7245228047977296	0.030881202163716256	0.5168482913226925	0.8862675765013225	0.05020048608293528	0.4284276468272911	0.824686766790544	1.461801221748026	0.34105528375277105	0.8141738850375008	1.6851756942485858	0.3563516996290026	0.7218182105418168	1.5797587204079768	0.29121763585627863	0.8604416797743042	1.376471004224545	0.16231530308830425	0.8887992205987659	1.1862780496948966	-0.02994025568822925	0.8665041658771845	1.095723236904671	-0.2108007045056848	0.8261670218948863	1.3708062327230608	0.5225047522225066	0.8102148325484728	1.1709819916609605	0.7130255134552096	0.7666306640792184	1.0732177459280559	0.8700064000424463
18	0.6	0.8192954222086667	0.8530046715368289	0.33666835508747195	0.8305104570680493	0.8127055544216144	0.25348345338327044	0.8381924838923955	0.48887016972611985	0.2653626335299956	0.8379548917756742	0.10730754739861659	0.2844517750738039	0.6708895752224788	0.03617146814784067	0.21439824939600993	0.7311033972244478	0.030003500986662192	0.1684436073916951	0.8673794183777294	0.0363835253437597	0.2985134989363339	0.8139357836622341	0.8132940962351715	0.42693687844563283	0.8280496358847783	0.4896043796385384	0.4212603132434568	0.844495050328482	0.1125573964968541	0.42678828497322796	0.6571376542860321	0.03548381558013898	0.4581641823864143	0.7244172364062236	0.03090847079424743	0.5168027753402938	0.8859572556925168	0.04974621998628725	0.42849535845243814	0.8243744806811802	1.4616160935191074	0.3411976460931362	0.8146174268176607	1.6850967501422973	0.3569747105153069	0.7249854845513791	1.5797411095403575	0.2887476716028305	0.8610430923112149	1.376668642035005	0.162994618880973	0.8888099245039914	1.1863886948167202	-0.02970263420890564	0.8670258714518861	1.0956144575020164	-0.21020462105181603	0.8263800199603101	1.3711198572189585	0.5225595138219088	0.8118704590451155	1.1702584085814722	0.7150794436736427	0.7651203878852045	1.0737728355311609	0.8698858799632043
19	0.6333333333333333	0.8193015263224832	0.853154372191868	0.3368600410448898	0.8306555961084494	0.8131205188088576	0.25359936936348426	0.8379135724321446	0.48784845978869235	0.26540041686908655	0.8382401842695574	0.10745562363745108	0.2842810069256839	0.6713299842325726	0.036077926829977916	0.21438184587397321	0.7314035445216082	0.03005429164179206	0.16854799496169465	0.8674702687051787	0.03662377390049784	0.2987097351173762	0.8140639531158147	0.8136212152239899	0.4274249049073041	0.8280699243025952	0.4897666909249676	0.4211858138843276	0.8447685218373417	0.11282575664550097	0.4263115974757711	0.6557030547499515	0.03497574863224896	0.45705681986619534	0.7244348559550812	0.03091360779856715	0.5167507064424337	0.8858352594479024	0.049158794950230164	0.4286378916054429	0.8240084156087757	1.4613706582624986	0.34130669972359745	0.8147419965857527	1.685189436126703	0.35756270448350636	0.7292034851283966	1.5794934155148412	0.28511472505858343	0.8618041408644564	1.3770713690530672	0.16379216641101477	0.8891049243282453	1.1864784443501306	-0.02955164130446436	0.8675028635400144	1.0952853554894508	-0.20966856604050602	0.8264353254174172	1.371516717042985	0.5226389474978981	0.8130058492780364	1.1696942613073318	0.7167187062936775	0.7637273017003006	1.0742950792293187	0.86989636294882
20	0.6666666666666666	0.8193598069920249	0.8532536662196223	0.33705235020426605	0.8309311998572422	0.8134108813274109	0.2538088371449784	0.8377203993751896	0.48505319363783517	0.26557094272863	0.8385694143274361	0.10775776857124184	0.2840971796041437	0.6726352059786349	0.03510518715165193	0.2152495939700297	0.7315809712741816	0.030157801861788146	0.16861285953822444	0.8675607614871552	0.03696963265352077	0.29890406710874684	0.8141963459212015	0.8138374300358074	0.42795608031076215	0.8281038382292364	0.48987968271037957	0.4211311136623573	0.8450447343140264	0.11302728954529578	0.42560953876363766	0.655536655165567	0.035038560630111196	0.4568496030138813	0.724652774995191	0.030944294548566325	0.5167424809577214	0.8859975559828004	0.04853318703513818	0.4288518670083378	0.823692566904407	1.4612231784502139	0.34137794451654074	0.8145627141653144	1.685497785275676	0.3579934762278113	0.7348220124287488	1.5789474093792764	0.28000883920012837	0.862252776422286	1.3773757451691688	0.16424426226593217	0.8895206183556018	1.186546303435993	-0.029381693488383053	0.8678093240811021	1.0948717409128088	-0.2092897142983476	0.826340004629754	1.371934662998653	0.5228042263951944	0.8135869211538446	1.1694117845455585	0.7178103295427491	0.7625925422419799	1.074714680239196	0.870053492247342
21	0.7	0.8195380634420563	0.8533023437925709	0.33727809256693003	0.8313264883061188	0.8135523233127583	0.254145482007142	0.8377044941328631	0.4812309921282629	0.26589734547208427	0.8389531070600041	0.10821475639057099	0.2838678697690554	0.674617032033296	0.03344336133549716	0.2169423821076536	0.7316016606024865	0.030320331301328968	0.16866874670869925	0.8676732525933922	0.037374257404799396	0.2990386108978981	0.8143595915827443	0.8139366346741642	0.4284536102255199	0.8282959132099111	0.48985560116083804	0.4210934729898973	0.8453631947608603	0.11305834749741667	0.42484810684402524	0.6570807219029559	0.035814023446932526	0.4578618114944611	0.725069859761664	0.03101289724923857	0.5168092837004342	0.8864225841437099	0.04793769246122849	0.4290553782747545	0.8235041731471222	1.4613876144514195	0.3414626549371549	0.814119398385987	1.6860687464433153	0.3580590386092627	0.741546711442925	1.5781542809469316	0.2738228685506197	0.8622359361951586	1.3774234144490916	0.16422058610774196	0.8899106282257306	1.1865594896879235	-0.029139888429615363	0.8679147492556123	1.094548751944378	-0.20908312943987953	0.8261630656918504	1.3723219527908646	0.5230595870757285	0.8138043632438506	1.169381604219313	0.7185605037493662	0.7616753886273324	1.074985327145152	0.8704278799135244
